<svg xmlns="http://www.w3.org/2000/svg" width="20.156" height="20.806"><g data-name="Group 726"><g data-name="Group 724"><path data-name="Path 2807" d="M11.192 2.91H4.626c-.1.87-.373 2.437-.5 3.109a4.556 4.556 0 0 1 2.96-.87c3.233 0 5.049 2.338 5.049 5.447 0 3.159-1.741 6.069-6.168 6.069-3.234 0-5.6-1.667-5.969-4.577h3.557a2.362 2.362 0 0 0 2.487 1.841c1.691 0 2.512-1.243 2.512-3.034 0-1.716-.621-2.935-2.512-2.935A2.339 2.339 0 0 0 3.53 9.601L.322 9.179C.77 7.115 1.466 2.24 1.74.001h9.946Z" fill="#9d9d9c"/></g><g data-name="Group 725"><path data-name="Path 2808" d="M19.211 7.052h-6.566c-.1.87-.373 2.438-.5 3.109a4.557 4.557 0 0 1 2.96-.87c3.233 0 5.049 2.338 5.049 5.447 0 3.159-1.741 6.069-6.168 6.069-3.233 0-5.6-1.667-5.969-4.577h3.557a2.362 2.362 0 0 0 2.487 1.841c1.691 0 2.512-1.243 2.512-3.034 0-1.716-.622-2.935-2.512-2.935a2.338 2.338 0 0 0-2.512 1.641L8.34 13.32c.448-2.065 1.144-6.939 1.418-9.177h9.948Z" fill="#9d9d9c"/></g></g></svg>
